# xmcd CD database file
#
# Track frame offsets:
#	150
#	77302
#	128065
#	177640
#	232642
#
# Disc length: 3882 seconds
#
# Revision: 0
# Processed by: cddbd v1.5.2PL0 Copyright (c) Steve Scherf et al.
# Submitted via: CDex 1.51
#
DISCID=2d0f2805
DTITLE=Charles McPherson - Illusions in Blue
DYEAR=1990
DGENRE=Jazz
TTITLE0=Illusions in Blue
TTITLE1=A Tear and a Smile
TTITLE2=Manhattan Nocturne
TTITLE3=Behop to Hip Pop
TTITLE4=Quiet Storm
EXTD=YEAR: 1990
EXTT0=
EXTT1=
EXTT2=
EXTT3=
EXTT4=
PLAYORDER=
